# xmcd
#
# Track frame offsets:
#	150
#	14365
#	27315
#	44500
#	57055
#	73810
#	87307
#	100182
#	121375
#	135655
#	147575
#	164362
#	174672
#	186595
#	201792
#
# Disc length: 2933 seconds
#
# Revision: 0
# Processed by: cddbd v1.5.2PL0 Copyright (c) Steve Scherf et al.
# Submitted via: EZCDAudioConverter 6.0.5.1
#
DISCID=df0b730f
DTITLE=Acker Bilk - Clarinet Moods
DYEAR=2007
DGENRE=Easy Listening
TTITLE0=Stranger on the Shore
TTITLE1=Summertime
TTITLE2=Night and Day
TTITLE3=I Wonder Who's Kissing Her Now
TTITLE4=Long Ago (And Far Away)
TTITLE5=Fly Me to the Moon (In Other Words)
TTITLE6=Body and Soul
TTITLE7=Stardust
TTITLE8=Embraceable You
TTITLE9=I'll Get By (As Long as I Have You)
TTITLE10=That Ole Devil Called Love
TTITLE11=Ole Buttermilk Sky
TTITLE12=Pennies from Heaven
TTITLE13=South of the Border (Down Mexico Way)
TTITLE14=Try a Little Tenderness
EXTD=
EXTT0=
EXTT1=
EXTT2=
EXTT3=
EXTT4=
EXTT5=
EXTT6=
EXTT7=
EXTT8=
EXTT9=
EXTT10=
EXTT11=
EXTT12=
EXTT13=
EXTT14=
PLAYORDER=
